<svg width="13" height="17" viewBox="0 0 13 17" fill="none" xmlns="http://www.w3.org/2000/svg">
<path fill-rule="evenodd" clip-rule="evenodd" d="M0 6.6C0 5.16406 1.16406 4 2.6 4H10.4C11.8359 4 13 5.16406 13 6.6V14.4C13 15.8359 11.8359 17 10.4 17H2.6C1.16406 17 0 15.8359 0 14.4V6.6ZM9.75 10.502C9.75 12.2969 8.29493 13.752 6.5 13.752C4.70507 13.752 3.25 12.2969 3.25 10.502C3.25 8.70703 4.70507 7.25195 6.5 7.25195C8.29493 7.25195 9.75 8.70703 9.75 10.502ZM10.725 7.90117C11.2635 7.90117 11.7 7.46465 11.7 6.92617C11.7 6.38769 11.2635 5.95117 10.725 5.95117C10.1865 5.95117 9.75 6.38769 9.75 6.92617C9.75 7.46465 10.1865 7.90117 10.725 7.90117Z" fill="#D9D9D9"/>
</svg>
