<svg width="17" height="17" viewBox="0 0 17 17" fill="none" xmlns="http://www.w3.org/2000/svg">
<rect width="1.7" height="8.5" transform="matrix(-1 0 0 1 3.40039 5.94922)" fill="#8FFF00"/>
<rect width="1.7" height="8.5" transform="matrix(-1 0 0 1 16.1504 5.94922)" fill="#8FFF00"/>
<rect width="1.7" height="3.4" transform="matrix(1.19249e-08 -1 -1 -1.19249e-08 5.95117 6.79883)" fill="#8FFF00"/>
<rect width="1.7" height="3.4" transform="matrix(1.19249e-08 -1 -1 -1.19249e-08 15.3008 6.79883)" fill="#8FFF00"/>
<rect width="1.7" height="1.7" transform="matrix(1.19249e-08 -1 -1 -1.19249e-08 6.80078 5.09961)" fill="#8FFF00"/>
<rect width="1.7" height="4.25" transform="matrix(1.19249e-08 -1 -1 -1.19249e-08 11.0508 4.24805)" fill="#8FFF00"/>
<rect width="1.7" height="1.7" transform="matrix(1.19249e-08 -1 -1 -1.19249e-08 9.77539 8.49805)" fill="#8FFF00"/>
<rect width="1.7" height="1.7" transform="matrix(1.19249e-08 -1 -1 -1.19249e-08 8.07617 10.1992)" fill="#8FFF00"/>
<rect width="0.85" height="0.85" transform="matrix(1.19249e-08 -1 -1 -1.19249e-08 5.10156 8.49805)" fill="#8FFF00"/>
<rect width="1.7" height="1.7" transform="matrix(1.19249e-08 -1 -1 -1.19249e-08 9.77539 11.8984)" fill="#8FFF00"/>
<rect width="1.7" height="1.7" transform="matrix(1.19249e-08 -1 -1 -1.19249e-08 11.4766 10.1992)" fill="#8FFF00"/>
<rect width="1.7" height="11.9" transform="matrix(1.19249e-08 -1 -1 -1.19249e-08 14.4512 15.2988)" fill="#8FFF00"/>
<rect width="1.7" height="1.7" transform="matrix(1.19249e-08 -1 -1 -1.19249e-08 12.75 5.09961)" fill="#8FFF00"/>
</svg>
