<svg width="19" height="18" viewBox="0 0 19 18" fill="none" xmlns="http://www.w3.org/2000/svg">
<path fill-rule="evenodd" clip-rule="evenodd" d="M4.16867 7.17195C2.97095 7.17195 2 8.14289 2 9.34062V14.8313C2 16.0291 2.97095 17 4.16867 17H14.8313C16.0291 17 17 16.0291 17 14.8313V9.34062C17 8.14289 16.0291 7.17195 14.8313 7.17195H14.2428C13.6124 7.17195 13.0132 6.89762 12.6012 6.42043L12.0238 5.75152C11.6118 5.27432 11.0126 5 10.3822 5H9.5H8.61782C7.9874 5 7.38818 5.27432 6.97623 5.75152L6.39877 6.42043C5.98682 6.89762 5.3876 7.17195 4.75718 7.17195H4.16867ZM9.51807 14.5C11.1749 14.5 12.5181 13.1569 12.5181 11.5C12.5181 9.84315 11.1749 8.5 9.51807 8.5C7.86121 8.5 6.51807 9.84315 6.51807 11.5C6.51807 13.1569 7.86121 14.5 9.51807 14.5Z" fill="#BEE38D"/>
</svg>
