<svg width="29" height="30" viewBox="0 0 29 30" fill="none" xmlns="http://www.w3.org/2000/svg">
<path fill-rule="evenodd" clip-rule="evenodd" d="M14.6885 0.974609C15.3784 0.974609 15.968 1.56422 15.968 2.25418V4.80077C15.968 5.49074 15.3784 6.0678 14.6885 6.0678C13.9985 6.0678 13.4215 5.49074 13.4215 4.80077V2.25418C13.4215 1.56422 13.9985 0.974609 14.6885 0.974609ZM20.9985 8.71475C20.4967 8.22551 20.4967 7.41009 20.986 6.92085L22.805 5.10185C23.2942 4.6126 24.1096 4.6126 24.5989 5.0893C25.0881 5.57855 25.0881 6.41905 24.5989 6.89576L22.7924 8.70221C22.3032 9.204 21.4752 9.204 20.9985 8.71475ZM8.37844 8.71475C7.88919 9.204 7.06124 9.204 6.58453 8.70221L4.77808 6.88321C4.30138 6.41905 4.30138 5.57855 4.79063 5.0893C5.27987 4.6126 6.10783 4.62515 6.58453 5.10185L8.39099 6.92085C8.86769 7.39755 8.86769 8.23805 8.37844 8.71475ZM8.07737 14.9997C8.07737 11.3743 11.0756 8.38859 14.6885 8.38859C18.3014 8.38859 21.287 11.3743 21.287 14.9997C21.287 18.6251 18.3014 21.6108 14.6885 21.6108C11.0756 21.6108 8.07737 18.6251 8.07737 14.9997ZM28.6885 14.9997C28.6885 15.6897 28.1114 16.2793 27.4215 16.2793H24.8749C24.1849 16.2793 23.6078 15.6897 23.6078 14.9997C23.6078 14.3097 24.1849 13.7327 24.8749 13.7327H27.4215C28.1114 13.7327 28.6885 14.3097 28.6885 14.9997ZM0.688477 14.9997C0.688477 14.3097 1.26554 13.7327 1.96805 13.7327H4.5021C5.19206 13.7327 5.78167 14.3097 5.78167 14.9997C5.78167 15.6897 5.19206 16.2793 4.5021 16.2793H1.96805C1.26554 16.2793 0.688477 15.6897 0.688477 14.9997ZM20.986 21.3097C21.4752 20.8205 22.2906 20.8079 22.7799 21.2972L24.5989 23.1036C25.0881 23.5929 25.0881 24.4083 24.6114 24.8975C24.1222 25.3868 23.2942 25.3993 22.8175 24.9101L20.9985 23.1036C20.4967 22.6018 20.4967 21.7864 20.986 21.3097ZM4.75299 24.885C4.27629 24.4083 4.28884 23.5803 4.77808 23.0911L6.58453 21.2972C7.07378 20.8205 7.90174 20.8205 8.39099 21.3097C8.86769 21.7864 8.86769 22.6144 8.37844 23.1036L6.55944 24.9101C6.08274 25.3868 5.24224 25.3742 4.75299 24.885ZM14.6885 23.9316C15.3784 23.9316 15.968 24.5087 15.968 25.1986V27.7452C15.968 28.4352 15.3784 29.0248 14.6885 29.0248C13.9985 29.0248 13.4215 28.4352 13.4215 27.7452V25.1986C13.4215 24.5087 13.9985 23.9316 14.6885 23.9316ZM10.0289 14.9594C10.0289 12.5366 11.8717 10.548 14.2205 10.3422C14.4423 10.3228 14.6233 10.5051 14.6233 10.7277L14.6233 19.1911C14.6233 19.4137 14.4423 19.596 14.2205 19.5766C11.8717 19.3708 10.0289 17.3822 10.0289 14.9594Z" fill="black"/>
</svg>
