<svg width="20" height="20" viewBox="0 0 20 20" fill="none" xmlns="http://www.w3.org/2000/svg">
<rect width="2" height="2" transform="matrix(1.19249e-08 -1 -1 -1.19249e-08 8 8)" fill="black"/>
<rect width="2" height="2" transform="matrix(1.19249e-08 -1 -1 -1.19249e-08 14 8)" fill="black"/>
<rect width="2" height="2" transform="matrix(1.19249e-08 -1 -1 -1.19249e-08 14 14)" fill="black"/>
<rect width="6" height="3" transform="matrix(1.19249e-08 -1 -1 -1.19249e-08 13 13)" fill="black"/>
<rect width="2" height="2" transform="matrix(1.19249e-08 -1 -1 -1.19249e-08 12 15)" fill="black"/>
<rect width="2" height="2" transform="matrix(1.19249e-08 -1 -1 -1.19249e-08 12 7)" fill="black"/>
<rect width="2" height="2" transform="matrix(1.19249e-08 -1 -1 -1.19249e-08 10 15)" fill="black"/>
<rect width="2" height="2" transform="matrix(1.19249e-08 -1 -1 -1.19249e-08 10 7)" fill="black"/>
<rect width="2" height="2" transform="matrix(1.19249e-08 -1 -1 -1.19249e-08 8 14)" fill="black"/>
<rect width="2" height="4" transform="matrix(-1 8.74228e-08 8.74228e-08 1 15 8)" fill="black"/>
<rect width="2" height="4" transform="matrix(-1 8.74228e-08 8.74228e-08 1 7 8)" fill="black"/>
<rect width="2" height="3" transform="matrix(-1 8.74228e-08 8.74228e-08 1 11 17)" fill="black"/>
<rect width="2" height="3" transform="matrix(-4.37114e-08 1 1 4.37114e-08 17 9)" fill="black"/>
<rect width="2" height="3" transform="matrix(-4.37114e-08 1 1 4.37114e-08 0 9)" fill="black"/>
<rect width="2" height="3" transform="matrix(-0.707107 0.707107 0.707107 0.707107 2.41406 2)" fill="black"/>
<rect width="2" height="3" transform="matrix(0.707107 -0.707107 -0.707107 -0.707107 17.1211 18.5352)" fill="black"/>
<rect x="16.4141" y="5.53516" width="2" height="3" transform="rotate(-135 16.4141 5.53516)" fill="black"/>
<rect x="3.12109" y="15" width="2" height="3" transform="rotate(45 3.12109 15)" fill="black"/>
<rect width="2" height="3" transform="matrix(-1 8.74228e-08 8.74228e-08 1 11 0)" fill="black"/>
</svg>
