<svg width="94" height="29" viewBox="0 0 94 29" fill="none" xmlns="http://www.w3.org/2000/svg">
<path d="M80.5714 11L92 11L92 22.4286" stroke="#8FFF00" stroke-width="2"/>
<path d="M83.4286 19.5714L92 11" stroke="#8FFF00" stroke-width="2"/>
<path d="M87.4286 22.4286L87.4286 27L76 27L76 15.5714L80.5714 15.5714" stroke="#8FFF00" stroke-width="2"/>
<path d="M66.9281 16.7392C66.1058 15.659 64.9127 15.1269 63.3165 15.1269C60.8335 15.1269 58.7697 16.0459 57.1413 17.8517C55.6257 19.4963 54.9001 21.286 55.0291 23.2369C55.0291 23.3821 55.0452 23.5272 55.0613 23.6723C54.9646 23.7045 54.9001 23.7368 54.8034 23.7851C52.8686 24.6236 51.0789 25.0428 49.4343 25.0428C48.612 25.0428 47.9993 24.7525 47.5962 24.1882C49.8051 23.8335 51.6432 22.9628 53.0943 21.6246C54.4486 20.3831 55.0936 19.2061 55.013 18.0452C54.8679 16.2233 53.6908 15.3204 51.4497 15.3204C49.0312 15.3204 46.9352 16.2394 45.1616 18.0613C43.5492 19.722 42.727 21.4795 42.7108 23.3176C42.7108 23.6239 42.727 23.9302 42.7592 24.2205C42.3884 24.4784 42.082 24.5913 41.9047 24.5913C41.4693 24.5913 41.2114 24.4946 41.0824 24.3172C40.9695 24.1399 40.9211 23.8174 40.9373 23.3337C40.9373 23.1563 41.0824 22.463 41.3726 21.2376C41.6628 20.0123 41.8079 19.0932 41.8402 18.4644C41.8885 17.5293 41.6951 16.8198 41.292 16.32C40.8083 15.7073 40.0182 15.4494 38.9218 15.53C38.0028 15.5945 37.1321 15.9492 36.2937 16.5457C35.7939 16.9005 35.278 17.4003 34.762 18.013C34.5846 18.1742 34.4073 18.3193 34.2461 18.4644C34.2622 17.5293 34.0848 16.8198 33.6979 16.32C33.2142 15.7073 32.4241 15.4494 31.2955 15.53C29.9895 15.6428 28.8286 16.1588 27.7645 17.0617C27.313 17.4487 26.9099 17.9001 26.5713 18.4161C26.6197 18.2226 26.6358 17.9807 26.6358 17.7711C26.6358 17.0778 26.4585 16.449 26.0876 15.9169C25.7329 15.3849 25.2492 15.1269 24.6526 15.1753C24.3141 15.1914 23.6691 15.659 22.7017 16.5296C21.3796 17.7711 20.654 18.4322 20.5573 18.5128L21.3796 19.4479C22.0245 18.9804 22.3954 18.7546 22.5405 18.7546C22.7985 18.7546 22.8952 18.9481 22.8468 19.3673C22.8307 19.9639 22.7178 20.7862 22.5244 21.8342C22.3954 22.4953 22.3309 23.0596 22.2664 23.5272C22.2503 23.5272 22.2503 23.5433 22.2341 23.5433C21.4118 24.2205 20.8314 24.5429 20.5412 24.5429C19.7995 24.5429 19.4609 24.0592 19.477 23.0757C19.8156 20.9474 20.1381 19.19 20.4283 17.7872C20.5251 16.9649 20.3961 16.3039 20.0414 15.8041C19.6866 15.2881 19.1223 15.0624 18.3807 15.143C17.8969 15.1914 17.1553 15.6428 16.204 16.4974C15.8654 16.8037 15.5268 17.1101 15.1882 17.4325C15.1237 15.8202 14.3821 14.9979 12.9793 14.9495C10.8672 14.885 9.43218 16.0782 8.70662 18.5289C9.09359 18.3677 9.48055 18.2709 9.83526 18.2709C10.6092 18.2709 10.9478 18.7063 10.851 19.5769C10.8027 20.0929 10.4641 20.8668 9.83526 21.8665C9.19033 22.8661 8.72275 23.3659 8.40028 23.3659C7.98107 23.3659 7.61023 22.592 7.27164 21.0442C7.15878 20.5927 6.94918 19.4318 6.65895 17.5454C6.38486 15.8041 5.65931 14.9979 4.4823 15.1108C3.98247 15.1591 3.22467 15.6106 2.22503 16.4651C1.48335 17.1262 0.757799 17.7872 0 18.4483L0.709428 19.3835C1.38661 18.8998 1.78969 18.674 1.90256 18.674C2.41851 18.674 2.90221 19.4963 3.36979 21.1248L4.61129 25.6393C5.22397 27.2839 5.96565 28.0901 6.86856 28.0901C8.30354 28.0901 10.061 26.7518 12.1087 24.0592C13.5598 22.1728 14.511 20.6088 14.9302 19.319C15.5107 18.8836 15.8654 18.674 15.9944 18.674C16.4136 18.674 16.6071 18.9804 16.6071 19.5769C16.6071 19.6898 16.3975 20.5282 15.946 22.1083C15.4946 23.6884 15.2688 24.8493 15.2527 25.6071C15.2366 26.3488 15.4139 26.9292 15.7848 27.3807C16.1556 27.8321 16.7038 28.0578 17.4132 28.0578C18.9288 28.0578 20.4767 27.3968 21.9923 26.0747C22.1374 25.9457 22.2664 25.8489 22.3792 25.7199C22.5082 26.2359 22.7017 26.6551 23.0081 26.9776C23.6691 27.6709 24.7816 28.0095 26.3456 27.9611C26.1521 27.4613 26.0554 26.5584 26.0876 25.3007C26.1521 23.8819 26.523 22.5275 27.184 21.2376C27.8451 19.9316 28.4578 19.2867 29.0221 19.2867C29.6831 19.2867 29.9895 19.722 29.9572 20.5605C29.9411 21.1409 29.8282 21.7858 29.6186 22.5114C29.4252 23.2531 29.2962 23.9625 29.2801 24.688C29.2317 25.8489 29.4897 26.6712 30.0701 27.171C30.6989 27.7515 31.8275 27.9933 33.4076 27.9611C33.1819 27.4451 33.0691 26.6873 33.1174 25.7038C33.1819 24.3011 33.6495 22.8822 34.5363 21.3828C35.3586 19.9639 36.068 19.2706 36.6646 19.2706C37.2128 19.2706 37.4707 19.7059 37.4546 20.5605C37.4385 21.1409 37.2934 21.9148 37.0193 22.9628C36.7452 23.9786 36.6001 24.8654 36.5839 25.591C36.5356 27.2355 37.2611 28.0417 38.7284 28.0417C40.244 28.0417 41.7918 27.3806 43.3074 26.0585L43.3719 25.994L43.5331 26.2681C44.3232 27.5096 45.6453 28.1062 47.4833 28.1062C49.9663 28.1062 52.4171 27.4129 54.8195 26.0263C55.0936 25.8651 55.3354 25.7199 55.5934 25.5587C55.7546 25.8651 55.9159 26.1553 56.1255 26.4132C57.0606 27.5741 58.4311 28.1546 60.2208 28.1546C62.3814 28.1546 64.2033 27.3806 65.6705 25.8651C67.1216 24.3495 67.9117 22.5275 67.9923 20.4476C68.0568 18.9804 67.7182 17.7227 66.9281 16.7392ZM47.0319 22.8984C47.0158 22.6081 47.0158 22.4469 47.0319 22.4469C47.048 21.5924 47.4189 20.6894 48.1283 19.7382C48.8216 18.7869 49.531 18.3193 50.2082 18.3193C50.7242 18.3193 50.9821 18.6257 50.966 19.2383C50.9499 19.6898 50.6113 20.2702 49.9502 21.0119C49.1118 21.8665 48.1444 22.4953 47.0319 22.8984ZM64.1388 20.3992C64.0904 21.4956 63.768 22.5436 63.1553 23.5433C62.4136 24.7687 61.5429 25.3491 60.5272 25.3491C60.0596 25.3491 59.721 25.0911 59.463 24.5913C59.2373 24.156 59.1406 23.6561 59.1567 23.0918C59.1889 21.9309 59.5436 20.8346 60.1724 19.8027C60.9302 18.545 61.8654 17.9162 63.0424 17.9162C63.3971 17.9162 63.6873 18.1742 63.8808 18.6901C64.0582 19.2061 64.1549 19.7865 64.1388 20.3992ZM16.6555 11.5152C16.6716 10.9187 17.0263 10.3544 17.6873 9.82229C18.3645 9.29022 19.1062 9 19.9285 9C20.4122 9 20.7992 9.17736 21.1216 9.54819C21.4441 9.91903 21.5892 10.306 21.5731 10.693C21.557 11.2734 21.2667 11.8055 20.7185 12.3214C20.1059 12.918 19.3803 13.1921 18.5419 13.1921C17.252 13.2082 16.6232 12.66 16.6555 11.5152Z" fill="#8FFF00"/>
</svg>
